<svg width="34" height="35" viewBox="0 0 34 35" fill="none" xmlns="http://www.w3.org/2000/svg" stroke="white">
<path d="M17.2394 0.481959C16.7644 0.664309 16.2965 0.999959 16.0273 1.34296C15.7508 1.70801 15.4673 2.29181 15.4105 2.62746C15.3823 2.77341 15.3398 2.89766 15.3112 2.89766C15.2898 2.89766 15.0916 2.82451 14.8787 2.74436C14.3613 2.53261 13.5177 2.51826 12.9435 2.70796C12.1567 2.97081 11.4335 3.66381 11.1428 4.43031C11.0225 4.73691 11.0153 5.31336 10.98 11.8668L10.9446 18.9746L10.1861 17.9529C9.12187 16.5225 8.72509 16.1868 7.7537 15.924C6.74696 15.6541 5.7545 15.9313 5.02418 16.6901C4.2585 17.471 3.98208 18.668 4.30814 19.7477C4.51384 20.4264 7.35658 25.8342 8.55475 27.8191C10.7879 31.5263 12.4821 33.1538 14.9634 33.9931C16.3316 34.453 17.7354 34.6427 19.6989 34.65C22.9388 34.6574 25.1648 33.8401 26.9583 31.9935C28.1207 30.7965 28.8296 29.5197 29.3543 27.6731C29.815 26.0456 29.7939 26.4618 29.815 17.1717C29.8432 7.99121 29.8432 7.96181 29.4532 7.12286C29.1982 6.56111 28.8507 6.17401 28.3686 5.91151C27.6029 5.48836 26.6672 5.42256 25.873 5.73651C25.5259 5.86776 25.5116 5.86776 25.5116 5.74386C25.5116 5.26961 25.3416 4.07996 25.2209 3.72226C24.8166 2.49621 23.8667 1.80286 22.6049 1.80286C22.1442 1.80286 21.3643 1.98521 21.1303 2.13851C21.0382 2.20431 20.9532 2.24071 20.9461 2.22601C20.9318 2.21131 20.8325 2.02896 20.7264 1.81721C20.4643 1.32091 19.9465 0.824609 19.429 0.576459C18.884 0.321309 17.8065 0.270209 17.2394 0.481959ZM18.8129 1.94146C19.139 2.09476 19.4368 2.40136 19.5714 2.71496C19.6422 2.88996 19.6707 4.26196 19.6989 9.26836L19.7343 15.61L19.9329 15.785C20.2021 16.0258 20.6135 16.0258 20.8828 15.785L21.0814 15.61L21.1167 9.96171C21.145 4.96266 21.1664 4.29136 21.2657 4.06526C21.5067 3.53991 21.8824 3.32816 22.5913 3.32816C23.2366 3.32816 23.5059 3.48881 23.7752 4.02886L23.9877 4.46671L24.0231 10.3415C24.0513 15.0413 24.0798 16.2526 24.1506 16.3839C24.3988 16.8364 25.1219 16.7997 25.4126 16.3254C25.448 16.2596 25.4905 14.5082 25.5119 12.2021L25.5473 8.18826L25.7458 7.76511C26.0223 7.19601 26.3201 7.03536 27.029 7.07176C27.8868 7.11551 28.2129 7.51696 28.3547 8.67721C28.4043 9.08601 28.4186 12.0267 28.3972 17.3177C28.3689 25.0971 28.3689 25.3596 28.22 26.1405C27.9507 27.6073 27.4686 28.8624 26.7737 29.9282C26.3908 30.5046 25.5259 31.395 24.9587 31.7891C23.3142 32.9277 20.9957 33.3725 18.139 33.1027C15.5302 32.8619 13.836 32.1321 12.425 30.6579C11.2764 29.4609 10.3125 28.0235 8.72441 25.1409C7.5973 23.1123 6.20058 20.4631 5.86738 19.726C5.30026 18.4783 5.8531 17.3471 7.02984 17.3471C7.46946 17.3471 7.8098 17.471 8.13586 17.7555C8.26336 17.8651 8.99369 18.8066 9.76651 19.8573C10.5393 20.9083 11.2554 21.8057 11.3546 21.8642C11.5886 21.9954 12.021 21.9226 12.2125 21.7256C12.3614 21.5796 12.3614 21.5359 12.3967 13.3476C12.4321 5.18141 12.4321 5.12296 12.581 4.83106C12.9285 4.14506 13.8428 3.86051 14.5163 4.22521C14.6934 4.32006 14.9345 4.51711 15.0481 4.67041L15.2677 4.95496L15.3031 10.2459L15.3384 15.5369L15.5724 15.7486C15.8984 16.0479 16.2602 16.0405 16.5505 15.7339L16.7562 15.5152L16.7916 9.15146L16.827 2.78776L16.9902 2.51756C17.3812 1.87601 18.1608 1.62786 18.8129 1.94146Z" fill="black"/>
</svg>
