<svg id="Layer_1" data-name="Layer 1" xmlns="http://www.w3.org/2000/svg" viewBox="0 0 756.78 948.43"><defs><style>.cls-1{fill:#ff7d00;stroke:#894b00;}.cls-1,.cls-2{stroke-miterlimit:10;stroke-width:8px;}.cls-2{fill:none;stroke:#000;}.cls-3{fill:#2e2e2e;}.cls-4{fill:#fff;}.cls-5{fill:#75aa00;}.cls-6{fill:#498a0c;}.cls-7{fill:#894b00;}.cls-10,.cls-8{fill:#5b4429;}.cls-9{fill:#5a5a5a;}.cls-10{font-size:150px;font-family:BodoniMT, Bodoni MT;}.cls-11{letter-spacing:0.01em;}.cls-12{letter-spacing:-0.01em;}</style></defs><title>nerdacker-logo2</title><path class="cls-1" d="M503.5,247c-24.2-.48-136.24.23-176.5,94.76-20.12,47.25-12.69,113.17,3,243.09,10.18,84.32,22.64,152.8,32,199.14H645c9.36-46.34,21.82-114.82,32-199.14,15.69-129.91,23.12-195.83,3-243.09C639.74,247.25,527.7,246.53,503.5,247" transform="translate(-121.55 -9.24)"/><path class="cls-2" d="M339,373" transform="translate(-121.55 -9.24)"/><path class="cls-2" d="M389,390" transform="translate(-121.55 -9.24)"/><path class="cls-3" d="M370.17,377.83c3.42.46,6.83,1,10.27,1.37,25.3,2.44,49.75,9.29,74.5,14.52,19.82,4.19,39.77,8.52,60.06,5.85a425.06,425.06,0,0,0,50.61-9.84c36.3-9.37,73-11.71,110.25-9.29,27.61,1.8,54.65,6.92,81.46,13.55,2.33.58,3.26,1.43,3.26,4,0,16.33-5,30.6-16.9,42.15a8.66,8.66,0,0,0-2.13,4.22c-3.32,15.23-6.15,30.57-9.88,45.69a189.53,189.53,0,0,1-9.1,27.63c-7.58,18.13-22,28.32-40.88,32.23-36.72,7.62-71.94,3.39-105.22-14.37-11.21-6-18.19-16.13-24.95-26.36-11.4-17.27-20-35.91-27.07-55.33a76.88,76.88,0,0,0-8.35-16.65c-7.43-11-19.09-11-25.56.46-5,8.91-7.85,19-11.69,28.61-4.31,10.73-7.48,22.13-13.24,32C456.48,514,441.69,524.16,426,532.83c-24,13.29-49.55,21.09-77.23,20.23-21.75-.67-41.63-6.76-57.49-22.45-10.52-10.41-15.6-23.82-19.48-37.81-4.85-17.48-5.53-35.44-6.65-53.37a7.83,7.83,0,0,0-2-4.81c-12.38-11.83-18.45-26-17.3-43.3.18-2.75,1.12-3.59,3.68-3.89q37.71-4.4,75.4-9a8.56,8.56,0,0,0,1.74-.6Zm275.2,13.38a215.25,215.25,0,0,0-66.15,11.49c-10.06,3.5-19.61,8-28,14.72-4.21,3.34-6.71,7.12-6.35,13,.92,14.73,2.1,29.36,6.72,43.5,4.84,14.82,11.57,28.78,23.89,38.64,28.27,22.62,60.67,30.62,96.26,24,16.44-3.05,29.86-11.31,37-27.33,3.29-7.38,6.64-14.82,9-22.53,5.42-18,7.34-36.34,3.52-55.06-3.63-17.79-13.76-29.5-31.15-34.81C676.56,392.75,662.73,391.14,645.37,391.21Zm-274.44,3.1c-19.69-.09-39,2.54-58.29,6.47-12.17,2.49-20.83,8.84-24.58,20.84a77.38,77.38,0,0,0-3.71,17.09,146.89,146.89,0,0,0,10.72,67.36,63.72,63.72,0,0,0,9.87,17c6.54,7.71,16.17,10.5,25.73,12.67,15.49,3.52,31.12,3.78,46.87,1.83,21.91-2.7,41.1-10.23,55.45-28.16,15.16-18.94,27.81-39,29-63.92,1-19.85-4.9-31.41-20.51-38.94a90.06,90.06,0,0,0-12.17-4.76C410.31,395.82,390.7,394.43,370.93,394.32Zm-89.48,8.18c-9.34-4.37-21.94-3.45-24.48,1.66C267.64,407.23,278.78,408.21,281.45,402.5Zm444.51.77c0,3.35,2.13,4.3,4.38,4.25,6.15-.14,12.29-.65,18.52-1-1.14-3.35-2-4.13-5.46-4.06C737.71,402.55,732,403,726,403.27Z" transform="translate(-121.55 -9.24)"/><path class="cls-3" d="M507.06,651.35C481.23,669,452.34,678,422.16,683.68a182.15,182.15,0,0,1-59.69,1.57c-14.8-2.12-28.42-7.44-39.58-18.16-19.06-18.31-14.69-50.28,2.82-65.5,10.35-9,25.16-7.9,35.2,2.11-2.64-.71-4.82-1.43-7-1.88a18.26,18.26,0,0,0-19.18,9.41c-3.39,6.44-2.2,16.54,2.72,21.39,5.36,5.28,12.06,5.21,18.75,3.86,12.93-2.59,24.51-8.25,35.07-16.08,8.61-6.38,17.29-12.66,25.91-19,19.6-14.47,41-15.24,63.11-7.62,6.81,2.34,13.19,6,19.64,9.28a6.3,6.3,0,0,0,5.65.26c11.5-4.15,22.84-9,34.66-11.89,20.15-4.89,39-.49,55.93,11.46,13.23,9.32,26.23,19,39.62,28a75.86,75.86,0,0,0,16.52,8.26c8.48,3.08,15.07.61,19.62-6.31,5.58-8.47,5.25-15.76-.47-23s-12.48-9.45-21.21-5.72c1.77-4.33,7.84-8,13.27-8.35a22.81,22.81,0,0,1,13.95,3.6c22.67,14.19,28.52,48.83,7.22,68.08-9.86,8.91-21.73,13.56-34.53,16-31.31,6.08-62.07,2.76-92.45-5.87-15.18-4.32-29.72-10.13-42.55-19.57C512.35,656.05,509.83,653.68,507.06,651.35Z" transform="translate(-121.55 -9.24)"/><path class="cls-4" d="M171.69,337.71c-3.45,7.39-17.87,6.13-31.67,2.15C143.3,333.24,159.61,332.05,171.69,337.71Z" transform="translate(-121.55 -9.24)"/><path class="cls-4" d="M746.8,338.71c7.84-.4,15.2-.94,22.56-1.08,4.53-.09,5.59.92,7.06,5.25-8.06.48-16,1.15-24,1.33C749.56,344.27,746.76,343,746.8,338.71Z" transform="translate(-121.55 -9.24)"/><path class="cls-5" d="M670.8,150.93c-52.52-5.83-93,5.41-122.39,34.48,11.31-60.61-5.85-129.13-43.56-176.17C462.39,63.2,447.11,127,460.37,187.9c-28.95-32.16-70.18-45.51-124.83-40.56,5.22,50.95,36.7,102.82,93,122.14l156.82-2.07c50.38-20.79,79.46-68.81,85.42-116.48Z" transform="translate(-121.55 -9.24)"/><path class="cls-6" d="M671.46,150.95c-52.79-6-93.39,5.11-122.84,34.22q-8.28,47.69-51,83.39l88.34-.82c50.6-20.76,79.64-68.91,85.46-116.79Z" transform="translate(-121.55 -9.24)"/><path class="cls-2" d="M349.67,739" transform="translate(-121.55 -9.24)"/><path class="cls-7" d="M354.33,731.33H459.67c6.43,0,6.45-10,0-10H354.33c-6.43,0-6.45,10,0,10Z" transform="translate(-121.55 -9.24)"/><path class="cls-7" d="M359,765.48H469c6.43,0,6.45-10,0-10H359c-6.43,0-6.45,10,0,10Z" transform="translate(-121.55 -9.24)"/><path class="cls-7" d="M654.33,711.23H557c-6.43,0-6.45,10,0,10h97.33c6.43,0,6.45-10,0-10Z" transform="translate(-121.55 -9.24)"/><path class="cls-7" d="M332.33,571.74H403c6.43,0,6.45-10,0-10H332.33c-6.43,0-6.45,10,0,10Z" transform="translate(-121.55 -9.24)"/><path class="cls-7" d="M683.67,356.67H551c-6.43,0-6.45,10,0,10H683.67c6.43,0,6.45-10,0-10Z" transform="translate(-121.55 -9.24)"/><path class="cls-7" d="M674.33,333.57H567.67c-6.43,0-6.45,10,0,10H674.33c6.43,0,6.45-10,0-10Z" transform="translate(-121.55 -9.24)"/><path class="cls-7" d="M651.67,298H591c-6.43,0-6.45,10,0,10h60.67c6.43,0,6.45-10,0-10Z" transform="translate(-121.55 -9.24)"/><path class="cls-7" d="M345.39,316.67H457c6.43,0,6.45-10,0-10H345.39c-6.43,0-6.45,10,0,10Z" transform="translate(-121.55 -9.24)"/><path class="cls-7" d="M671.46,574.16H562.33c-6.43,0-6.45,10,0,10H671.46c6.43,0,6.45-10,0-10Z" transform="translate(-121.55 -9.24)"/><path class="cls-7" d="M677.69,553.33h-20c-6.43,0-6.45,10,0,10h20c6.43,0,6.45-10,0-10Z" transform="translate(-121.55 -9.24)"/><path class="cls-7" d="M643.67,762H531c-6.43,0-6.45,10,0,10H643.67c6.43,0,6.45-10,0-10Z" transform="translate(-121.55 -9.24)"/><path class="cls-7" d="M332.33,346.78H394c6.43,0,6.45-10,0-10H332.33c-6.43,0-6.45,10,0,10Z" transform="translate(-121.55 -9.24)"/><path class="cls-8" d="M139.57,803.63c24.2-2.51,48.5-5.92,72.78-7.45,2.57-.16,5.17.09,7.72-.06s-3.47-1.14,1.09.17c1.1.31,2.19.57,3.27,1-2.9-1,.47.34,1.18.73,1.27.69,2.51,1.43,3.77,2.14a81.63,81.63,0,0,0,10.43,5c11.55,4.54,24.41,3.51,36.14.17,10.24-2.92,20-7.22,30.4-9.54.56-.13,3.19-.3.45-.1,1.21-.09,2.41-.19,3.62-.23a82.76,82.76,0,0,1,9,.3c3.65.27,1.46.13.63,0,1.51.2,3,.48,4.51.76,3.33.61,6.63,1.34,9.93,2.08,12.29,2.79,24.49,5.51,37.1,6.42a191.86,191.86,0,0,0,36.86-1.39q10.16-1.24,20.28-2.85,4.34-.69,8.68-1.43l4.75-.81c.7-.12,5.34-.88,4-.68-2.43.36,3.49-.35,3.07-.32,1.21-.1,2.43-.17,3.65-.2s2.43,0,3.64,0c5.18,0-1.31-.64,1.41.12a124.94,124.94,0,0,0,19.32,3.74,77.6,77.6,0,0,0,17.75-.37c3.78-.44,7.55-1,11.33-1.48-2.75.35.51-.06.89-.1,1.94-.23,3.89-.46,5.83-.67,12.32-1.3,24.7-1.93,37.09-2.12,24.84-.37,49.66,1,74.45,2.34,12.46.67,24.93,1.37,37.35,2.58,12,1.17,24.26,3.95,36.34,3a105.28,105.28,0,0,0,21.28-4.06c3.11-.89,6.21-1.84,9.36-2.62,1.14-.28,2.29-.56,3.44-.8,0,0,5.73-.91,2.7-.54,13.3-1.59,26.86,0,40.13,1.06l85.14,6.9c9.41.76,18.41-8.82,18-18-.47-10.4-7.92-17.18-18-18l-75.24-6.1c-12.22-1-24.5-2.37-36.77-2.47a130.43,130.43,0,0,0-37.48,5.62c-2.54.73-5.09,1.46-7.66,2.08-1.43.34-2.86.65-4.3.91.85-.15,3.31-.19-.59,0a103.36,103.36,0,0,1-18.93-1c-12.33-1.54-24.65-2.79-37.05-3.59-24.47-1.6-49-2.95-73.56-3.34-12.39-.2-24.8-.07-37.18.61q-8.79.49-17.54,1.38-4.38.45-8.75,1c-2.22.28-4.43.59-6.65.89a25.26,25.26,0,0,1-2.69.34c-3.12.34-6.23.69-9.36.8-1.24,0-2.49.07-3.74,0,.48,0-5.59-.33-3.19-.09s-3.21-.65-2.86-.57c-1.13-.25-2.25-.54-3.37-.81-2.81-.68-5.61-1.34-8.47-1.8-13.86-2.21-27.24.65-40.91,2.92-3.22.53-6.44,1.05-9.66,1.54l-3.87.57c2.47-.35-.75.1-1,.13-6.45.79-12.92,1.42-19.42,1.7a161.26,161.26,0,0,1-17.45-.13,82.55,82.55,0,0,1-15.85-2.32c-12.41-2.64-24.61-5.88-37.3-7-12.12-1.09-24.09,1-35.55,4.92-5.58,1.9-11.07,4-16.73,5.71a62.08,62.08,0,0,1-8.67,2c.82-.12,3.44-.16.09-.16-1.58,0-3.1,0-4.67-.08,3.45.15,1,.2.14-.12-.7-.25-4.6-1.73-2-.5-2.88-1.34-5.55-3.11-8.34-4.61a55.27,55.27,0,0,0-22.86-6.71c-12.73-.94-26,1.73-38.7,3l-42.65,4.42c-9.34,1-18.47,7.59-18,18,.4,8.92,8,19,18,18Z" transform="translate(-121.55 -9.24)"/><path class="cls-9" d="M74,166" transform="translate(-121.55 -9.24)"/><line class="cls-9" x1="397.67" y1="237.93" x2="477.45" y2="768.13"/><text class="cls-10" transform="translate(57.14 906.76)">Nerda<tspan class="cls-11" x="387.38" y="0">c</tspan><tspan class="cls-12" x="452.86" y="0">k</tspan><tspan x="531.01" y="0">er</tspan></text></svg>